<svg width="160" height="68" viewBox="0 0 160 68" fill="none" xmlns="http://www.w3.org/2000/svg">
<path d="M0.78125 25.789V22.9999H13.9219V25.789H9.02344V38.9999H5.67969V25.789H0.78125ZM19.752 39.2343C18.5176 39.2343 17.4551 38.9843 16.5645 38.4843C15.679 37.9791 14.9967 37.2656 14.5176 36.3437C14.0384 35.4166 13.7988 34.3202 13.7988 33.0546C13.7988 31.8202 14.0384 30.7369 14.5176 29.8046C14.9967 28.8723 15.6712 28.1458 16.541 27.6249C17.416 27.1041 18.4421 26.8437 19.6191 26.8437C20.4108 26.8437 21.1478 26.9713 21.8301 27.2265C22.5176 27.4765 23.1165 27.8541 23.627 28.3593C24.1426 28.8645 24.5436 29.4999 24.8301 30.2656C25.1165 31.026 25.2598 31.9166 25.2598 32.9374V33.8515H15.127V31.789H22.127C22.127 31.3098 22.0228 30.8853 21.8145 30.5156C21.6061 30.1458 21.3171 29.8567 20.9473 29.6484C20.5827 29.4348 20.1582 29.3281 19.6738 29.3281C19.1686 29.3281 18.7207 29.4452 18.3301 29.6796C17.9447 29.9088 17.6426 30.2187 17.4238 30.6093C17.2051 30.9947 17.0931 31.4244 17.0879 31.8984V33.8593C17.0879 34.4531 17.1973 34.9661 17.416 35.3984C17.64 35.8307 17.9551 36.164 18.3613 36.3984C18.7676 36.6327 19.2493 36.7499 19.8066 36.7499C20.1764 36.7499 20.515 36.6978 20.8223 36.5937C21.1296 36.4895 21.3926 36.3333 21.6113 36.1249C21.8301 35.9166 21.9967 35.6614 22.1113 35.3593L25.1895 35.5624C25.0332 36.302 24.7129 36.9478 24.2285 37.4999C23.7493 38.0468 23.1296 38.4739 22.3691 38.7812C21.6139 39.0833 20.7415 39.2343 19.752 39.2343ZM29.998 26.9999L32.2012 31.1952L34.459 26.9999H37.873L34.3965 32.9999L37.9668 38.9999H34.5684L32.2012 34.8515L29.873 38.9999H26.4355L29.998 32.9999L26.5605 26.9999H29.998ZM48.2012 31.6718V34.289H41.9355V31.6718H48.2012ZM43.0293 26.9999V38.9999H39.8496V26.9999H43.0293ZM50.2871 26.9999V38.9999H47.1309V26.9999H50.2871ZM58.291 39.2343C57.0775 39.2343 56.028 38.9765 55.1426 38.4609C54.2624 37.94 53.5827 37.2161 53.1035 36.289C52.6243 35.3567 52.3848 34.276 52.3848 33.0468C52.3848 31.8072 52.6243 30.7239 53.1035 29.7968C53.5827 28.8645 54.2624 28.1406 55.1426 27.6249C56.028 27.1041 57.0775 26.8437 58.291 26.8437C59.5046 26.8437 60.5514 27.1041 61.4316 27.6249C62.3171 28.1406 62.9993 28.8645 63.4785 29.7968C63.9577 30.7239 64.1973 31.8072 64.1973 33.0468C64.1973 34.276 63.9577 35.3567 63.4785 36.289C62.9993 37.2161 62.3171 37.94 61.4316 38.4609C60.5514 38.9765 59.5046 39.2343 58.291 39.2343ZM58.3066 36.6562C58.8587 36.6562 59.3197 36.4999 59.6895 36.1874C60.0592 35.8697 60.3379 35.4374 60.5254 34.8906C60.7181 34.3437 60.8145 33.7213 60.8145 33.0234C60.8145 32.3255 60.7181 31.7031 60.5254 31.1562C60.3379 30.6093 60.0592 30.177 59.6895 29.8593C59.3197 29.5416 58.8587 29.3827 58.3066 29.3827C57.7493 29.3827 57.2806 29.5416 56.9004 29.8593C56.5254 30.177 56.2415 30.6093 56.0488 31.1562C55.8613 31.7031 55.7676 32.3255 55.7676 33.0234C55.7676 33.7213 55.8613 34.3437 56.0488 34.8906C56.2415 35.4374 56.5254 35.8697 56.9004 36.1874C57.2806 36.4999 57.7493 36.6562 58.3066 36.6562ZM65.6582 38.9999L65.6426 36.3593H66.041C66.3223 36.3593 66.5645 36.2916 66.7676 36.1562C66.9759 36.0156 67.1478 35.789 67.2832 35.4765C67.4186 35.164 67.5254 34.7499 67.6035 34.2343C67.6816 33.7135 67.7337 33.0728 67.7598 32.3124L67.9551 26.9999H77.0801V38.9999H73.9082V29.6171H70.9473L70.7598 33.2812C70.7129 34.2864 70.5905 35.151 70.3926 35.8749C70.1999 36.5989 69.9316 37.1926 69.5879 37.6562C69.2441 38.1145 68.8301 38.4531 68.3457 38.6718C67.8613 38.8906 67.2988 38.9999 66.6582 38.9999H65.6582ZM85.082 39.2343C83.8685 39.2343 82.819 38.9765 81.9336 38.4609C81.0534 37.94 80.3737 37.2161 79.8945 36.289C79.4154 35.3567 79.1758 34.276 79.1758 33.0468C79.1758 31.8072 79.4154 30.7239 79.8945 29.7968C80.3737 28.8645 81.0534 28.1406 81.9336 27.6249C82.819 27.1041 83.8685 26.8437 85.082 26.8437C86.2956 26.8437 87.3424 27.1041 88.2227 27.6249C89.1081 28.1406 89.7904 28.8645 90.2695 29.7968C90.7487 30.7239 90.9883 31.8072 90.9883 33.0468C90.9883 34.276 90.7487 35.3567 90.2695 36.289C89.7904 37.2161 89.1081 37.94 88.2227 38.4609C87.3424 38.9765 86.2956 39.2343 85.082 39.2343ZM85.0977 36.6562C85.6497 36.6562 86.1107 36.4999 86.4805 36.1874C86.8503 35.8697 87.1289 35.4374 87.3164 34.8906C87.5091 34.3437 87.6055 33.7213 87.6055 33.0234C87.6055 32.3255 87.5091 31.7031 87.3164 31.1562C87.1289 30.6093 86.8503 30.177 86.4805 29.8593C86.1107 29.5416 85.6497 29.3827 85.0977 29.3827C84.5404 29.3827 84.0716 29.5416 83.6914 29.8593C83.3164 30.177 83.0326 30.6093 82.8398 31.1562C82.6523 31.7031 82.5586 32.3255 82.5586 33.0234C82.5586 33.7213 82.6523 34.3437 82.8398 34.8906C83.0326 35.4374 83.3164 35.8697 83.6914 36.1874C84.0716 36.4999 84.5404 36.6562 85.0977 36.6562ZM101.371 26.9999V29.6171H96.3867V38.9999H93.1523V26.9999H101.371ZM106.58 34.6093L110.9 26.9999H114.182V38.9999H111.01V31.3671L106.705 38.9999H103.4V26.9999H106.58V34.6093ZM123.881 38.9999V29.6093H121.631C121.021 29.6093 120.558 29.7499 120.24 30.0312C119.923 30.3124 119.766 30.6458 119.771 31.0312C119.766 31.4218 119.917 31.7525 120.225 32.0234C120.537 32.289 120.995 32.4218 121.6 32.4218H124.99V34.6718H121.6C120.574 34.6718 119.686 34.5156 118.936 34.2031C118.186 33.8906 117.607 33.4557 117.201 32.8984C116.795 32.3359 116.594 31.6822 116.6 30.9374C116.594 30.1562 116.795 29.4713 117.201 28.8827C117.607 28.289 118.188 27.8281 118.943 27.4999C119.704 27.1666 120.6 26.9999 121.631 26.9999H126.982V38.9999H123.881ZM116.256 38.9999L119.592 32.7499H122.771L119.443 38.9999H116.256ZM15.5078 52.6015H12.0859C12.0234 52.1588 11.8958 51.7656 11.7031 51.4218C11.5104 51.0728 11.263 50.776 10.9609 50.5312C10.6589 50.2864 10.3099 50.0989 9.91406 49.9687C9.52344 49.8385 9.09896 49.7734 8.64063 49.7734C7.8125 49.7734 7.09115 49.9791 6.47656 50.3906C5.86198 50.7968 5.38542 51.3906 5.04688 52.1718C4.70833 52.9478 4.53906 53.8906 4.53906 54.9999C4.53906 56.1406 4.70833 57.0989 5.04688 57.8749C5.39063 58.651 5.86979 59.2369 6.48437 59.6327C7.09896 60.0286 7.8099 60.2265 8.61719 60.2265C9.07031 60.2265 9.48958 60.1666 9.875 60.0468C10.2656 59.927 10.612 59.7525 10.9141 59.5234C11.2161 59.289 11.4661 59.0051 11.6641 58.6718C11.8672 58.3385 12.0078 57.9583 12.0859 57.5312L15.5078 57.5468C15.4193 58.2812 15.1979 58.9895 14.8438 59.6718C14.4948 60.3489 14.0234 60.9557 13.4297 61.4921C12.8411 62.0234 12.138 62.4452 11.3203 62.7577C10.5078 63.065 9.58854 63.2187 8.5625 63.2187C7.13542 63.2187 5.85938 62.8958 4.73438 62.2499C3.61458 61.6041 2.72917 60.6692 2.07812 59.4452C1.43229 58.2213 1.10938 56.7395 1.10938 54.9999C1.10938 53.2551 1.4375 51.7708 2.09375 50.5468C2.75 49.3228 3.64063 48.3906 4.76563 47.7499C5.89063 47.1041 7.15625 46.7812 8.5625 46.7812C9.48958 46.7812 10.349 46.9114 11.1406 47.1718C11.9375 47.4322 12.6432 47.8124 13.2578 48.3124C13.8724 48.8072 14.3724 49.414 14.7578 50.1327C15.1484 50.8515 15.3984 51.6744 15.5078 52.6015ZM17.8711 62.9999V50.9999H21.1992V55.6562H22.1367L25.4023 50.9999H29.3086L25.0664 56.9531L29.3555 62.9999H25.4023L22.4414 58.7421H21.1992V62.9999H17.8711ZM35.6895 63.2343C34.4759 63.2343 33.4264 62.9765 32.541 62.4609C31.6608 61.94 30.9811 61.2161 30.502 60.289C30.0228 59.3567 29.7832 58.276 29.7832 57.0468C29.7832 55.8072 30.0228 54.7239 30.502 53.7968C30.9811 52.8645 31.6608 52.1406 32.541 51.6249C33.4264 51.1041 34.4759 50.8437 35.6895 50.8437C36.903 50.8437 37.9499 51.1041 38.8301 51.6249C39.7155 52.1406 40.3978 52.8645 40.877 53.7968C41.3561 54.7239 41.5957 55.8072 41.5957 57.0468C41.5957 58.276 41.3561 59.3567 40.877 60.289C40.3978 61.2161 39.7155 61.94 38.8301 62.4609C37.9499 62.9765 36.903 63.2343 35.6895 63.2343ZM35.7051 60.6562C36.2572 60.6562 36.7181 60.4999 37.0879 60.1874C37.4577 59.8697 37.7363 59.4374 37.9238 58.8906C38.1165 58.3437 38.2129 57.7213 38.2129 57.0234C38.2129 56.3255 38.1165 55.7031 37.9238 55.1562C37.7363 54.6093 37.4577 54.177 37.0879 53.8593C36.7181 53.5416 36.2572 53.3827 35.7051 53.3827C35.1478 53.3827 34.679 53.5416 34.2988 53.8593C33.9238 54.177 33.64 54.6093 33.4473 55.1562C33.2598 55.7031 33.166 56.3255 33.166 57.0234C33.166 57.7213 33.2598 58.3437 33.4473 58.8906C33.64 59.4374 33.9238 59.8697 34.2988 60.1874C34.679 60.4999 35.1478 60.6562 35.7051 60.6562ZM43.7598 67.4999V50.9999H47.041V53.0156H47.1895C47.3353 52.6926 47.5462 52.3645 47.8223 52.0312C48.1035 51.6926 48.4681 51.4114 48.916 51.1874C49.3691 50.9583 49.9316 50.8437 50.6035 50.8437C51.4785 50.8437 52.2858 51.0728 53.0254 51.5312C53.765 51.9843 54.3561 52.6692 54.7988 53.5859C55.2415 54.4973 55.4629 55.6406 55.4629 57.0156C55.4629 58.3541 55.2467 59.4843 54.8145 60.4062C54.3874 61.3228 53.804 62.0182 53.0645 62.4921C52.3301 62.9609 51.5072 63.1952 50.5957 63.1952C49.9499 63.1952 49.4004 63.0885 48.9473 62.8749C48.4993 62.6614 48.1322 62.3932 47.8457 62.0702C47.5592 61.7421 47.3405 61.4114 47.1895 61.0781H47.0879V67.4999H43.7598ZM47.0176 56.9999C47.0176 57.7135 47.1165 58.3359 47.3145 58.8671C47.5124 59.3984 47.7988 59.8124 48.1738 60.1093C48.5488 60.401 49.0046 60.5468 49.541 60.5468C50.0827 60.5468 50.541 60.3984 50.916 60.1015C51.291 59.7994 51.5749 59.3827 51.7676 58.8515C51.9655 58.315 52.0645 57.6978 52.0645 56.9999C52.0645 56.3072 51.9681 55.6978 51.7754 55.1718C51.5827 54.6458 51.2988 54.2343 50.9238 53.9374C50.5488 53.6406 50.0879 53.4921 49.541 53.4921C48.9993 53.4921 48.541 53.6353 48.166 53.9218C47.7962 54.2083 47.5124 54.6145 47.3145 55.1406C47.1165 55.6666 47.0176 56.2864 47.0176 56.9999ZM63.1035 63.2343C61.89 63.2343 60.8405 62.9765 59.9551 62.4609C59.0749 61.94 58.3952 61.2161 57.916 60.289C57.4368 59.3567 57.1973 58.276 57.1973 57.0468C57.1973 55.8072 57.4368 54.7239 57.916 53.7968C58.3952 52.8645 59.0749 52.1406 59.9551 51.6249C60.8405 51.1041 61.89 50.8437 63.1035 50.8437C64.3171 50.8437 65.3639 51.1041 66.2441 51.6249C67.1296 52.1406 67.8118 52.8645 68.291 53.7968C68.7702 54.7239 69.0098 55.8072 69.0098 57.0468C69.0098 58.276 68.7702 59.3567 68.291 60.289C67.8118 61.2161 67.1296 61.94 66.2441 62.4609C65.3639 62.9765 64.3171 63.2343 63.1035 63.2343ZM63.1191 60.6562C63.6712 60.6562 64.1322 60.4999 64.502 60.1874C64.8717 59.8697 65.1504 59.4374 65.3379 58.8906C65.5306 58.3437 65.627 57.7213 65.627 57.0234C65.627 56.3255 65.5306 55.7031 65.3379 55.1562C65.1504 54.6093 64.8717 54.177 64.502 53.8593C64.1322 53.5416 63.6712 53.3827 63.1191 53.3827C62.5618 53.3827 62.0931 53.5416 61.7129 53.8593C61.3379 54.177 61.054 54.6093 60.8613 55.1562C60.6738 55.7031 60.5801 56.3255 60.5801 57.0234C60.5801 57.7213 60.6738 58.3437 60.8613 58.8906C61.054 59.4374 61.3379 59.8697 61.7129 60.1874C62.0931 60.4999 62.5618 60.6562 63.1191 60.6562ZM76.5957 63.2343C75.3665 63.2343 74.3092 62.9739 73.4238 62.4531C72.5436 61.927 71.8665 61.1978 71.3926 60.2656C70.9238 59.3333 70.6895 58.2603 70.6895 57.0468C70.6895 55.8176 70.9264 54.7395 71.4004 53.8124C71.8796 52.8801 72.5592 52.1536 73.4395 51.6327C74.3197 51.1067 75.3665 50.8437 76.5801 50.8437C77.627 50.8437 78.5436 51.0338 79.3301 51.414C80.1165 51.7942 80.7389 52.3281 81.1973 53.0156C81.6556 53.7031 81.9082 54.5103 81.9551 55.4374H78.8145C78.7259 54.8385 78.4915 54.3567 78.1113 53.9921C77.7363 53.6223 77.2441 53.4374 76.6348 53.4374C76.1191 53.4374 75.6686 53.5781 75.2832 53.8593C74.903 54.1353 74.6061 54.539 74.3926 55.0702C74.179 55.6015 74.0723 56.2447 74.0723 56.9999C74.0723 57.7656 74.1764 58.4166 74.3848 58.9531C74.5983 59.4895 74.8978 59.8984 75.2832 60.1796C75.6686 60.4609 76.1191 60.6015 76.6348 60.6015C77.015 60.6015 77.3561 60.5234 77.6582 60.3671C77.9655 60.2109 78.2181 59.9843 78.416 59.6874C78.6191 59.3853 78.752 59.0234 78.8145 58.6015H81.9551C81.903 59.5182 81.653 60.3255 81.2051 61.0234C80.7624 61.7161 80.1504 62.2577 79.3691 62.6484C78.5879 63.039 77.6634 63.2343 76.5957 63.2343ZM83.2676 53.6171V50.9999H94.1426V53.6171H90.2754V62.9999H87.1035V53.6171H83.2676ZM99.3398 58.6093L103.66 50.9999H106.941V62.9999H103.77V55.3671L99.4648 62.9999H96.1602V50.9999H99.3398V58.6093Z" fill="#2B2D33"/>
<path d="M140.378 38.2806L140.272 38.2538C140.181 37.5751 140.361 36.7314 140.357 36.0216C140.343 33.467 140.264 30.9433 139.711 28.4371C138.424 22.606 135.096 17.6468 130.446 13.9459C128.723 12.5744 126.853 11.3987 125 10.2138L136.81 12.0227L151.928 14.3708L140.378 38.2806Z" fill="#D50000"/>
</svg>
